<svg width="16" height="16" viewBox="0 0 16 16" fill="none" xmlns="http://www.w3.org/2000/svg">
<path fill-rule="evenodd" clip-rule="evenodd" d="M8.92792 2.02083L14.5409 12.4445C14.6273 12.605 14.6706 12.7853 14.6666 12.9676C14.6625 13.1499 14.6112 13.328 14.5177 13.4846C14.4241 13.6411 14.2916 13.7707 14.133 13.8607C13.9744 13.9507 13.7952 13.998 13.6128 13.998H2.38588C2.20367 13.9977 2.02463 13.9502 1.86625 13.8601C1.70787 13.77 1.57556 13.6404 1.48223 13.4839C1.3889 13.3274 1.33774 13.1494 1.33375 12.9672C1.32976 12.785 1.37306 12.6049 1.45945 12.4445L7.07208 2.02083C7.47025 1.28179 8.53007 1.28179 8.92792 2.02083ZM7.99159 4.9139H7.99846C8.10867 4.91385 8.21779 4.93613 8.31916 4.97938C8.42054 5.02265 8.5121 5.086 8.58832 5.16563C8.66455 5.24525 8.72384 5.3395 8.76264 5.44267C8.80016 5.54244 8.80683 5.62657 8.80016 5.73324L8.62644 9.77994C8.62579 9.94534 8.55981 10.1038 8.44281 10.2208C8.32524 10.3384 8.16577 10.4044 7.9995 10.4044C7.83322 10.4044 7.67375 10.3384 7.55618 10.2208C7.43918 10.1038 7.3732 9.94534 7.37255 9.77994L7.18362 5.76588C7.17878 5.65649 7.19599 5.54697 7.23427 5.44439C7.27254 5.34181 7.33108 5.24798 7.40639 5.1685C7.4817 5.08902 7.57224 5.02552 7.67262 4.98178C7.77299 4.93804 7.88115 4.91496 7.99063 4.9139L7.99159 4.9139ZM7.85214 10.9814C7.99931 10.9522 8.15186 10.9672 8.29049 11.0246C8.42912 11.082 8.54761 11.1793 8.63098 11.304C8.71434 11.4288 8.75884 11.5755 8.75884 11.7255C8.75884 11.8252 8.73921 11.9238 8.70109 12.0159C8.66296 12.1079 8.60707 12.1916 8.53662 12.262C8.46617 12.3325 8.38254 12.3883 8.29049 12.4265C8.19844 12.4646 8.09979 12.4842 8.00015 12.4842C7.8501 12.4842 7.70342 12.4397 7.57865 12.3564C7.45389 12.273 7.35665 12.1545 7.29922 12.0159C7.2418 11.8772 7.22678 11.7247 7.25605 11.5775C7.28532 11.4304 7.35758 11.2952 7.46368 11.1891C7.56979 11.083 7.70497 11.0107 7.85214 10.9814Z" fill="white" fill-opacity="0.88"/>
</svg>
